<svg xmlns="http://www.w3.org/2000/svg" viewBox="0 0 64 64" fill="none">
  <defs>
    <linearGradient id="cg-bg" x1="32" y1="6" x2="32" y2="58" gradientUnits="userSpaceOnUse">
      <stop offset="0" stop-color="#3f576a"/>
      <stop offset=".42" stop-color="#1c2c38"/>
      <stop offset="1" stop-color="#091015"/>
    </linearGradient>
    <radialGradient id="cg-glow" cx="0" cy="0" r="1" gradientUnits="userSpaceOnUse" gradientTransform="translate(22 14) rotate(52) scale(26 22)">
      <stop stop-color="#7a9bad" stop-opacity=".52"/>
      <stop offset="1" stop-color="#7a9bad" stop-opacity="0"/>
    </radialGradient>
    <filter id="cg-shadow" x="-20%" y="-20%" width="140%" height="140%">
      <feDropShadow dx="1.4" dy="1.6" stdDeviation="1.4" flood-color="#391f0a" flood-opacity=".55"/>
    </filter>
    <filter id="cg-soft" x="-20%" y="-20%" width="140%" height="140%">
      <feDropShadow dx="0" dy="0" stdDeviation="1.5" flood-color="#fde0a3" flood-opacity=".18"/>
    </filter>
  </defs>
  <rect x="6" y="6" width="52" height="52" rx="12" fill="url(#cg-bg)" stroke="#7c95a8" stroke-width="2"/>
  <rect x="6" y="6" width="52" height="52" rx="12" fill="url(#cg-glow)"/>
  <rect x="12" y="12" width="40" height="40" rx="7" fill="#142029" fill-opacity=".55"/>
  <g opacity=".42" stroke="#52697c" stroke-width="1.8" stroke-linecap="round">
    <path d="M18 18H46"/>
    <path d="M18 32H46"/>
    <path d="M18 46H46"/>
    <path d="M18 18V46"/>
    <path d="M32 18V46"/>
    <path d="M46 18V46"/>
  </g>
  <g stroke-linecap="round" stroke-linejoin="round" fill="none">
    <path d="M46 18L32 32L18 46" stroke="#5c798f" stroke-opacity=".52" stroke-width="3.2"/>
    <path d="M46 18L32 32L18 46" stroke="#acc3d2" stroke-opacity=".18" stroke-width="1.2"/>
    <g filter="url(#cg-shadow)">
      <path d="M18 18L32 32L46 46" stroke="#e09b2d" stroke-width="4.2"/>
      <path d="M18 18L32 32L46 46" stroke="#fde0a3" stroke-opacity=".54" stroke-width="1.7"/>
    </g>
  </g>
  <g filter="url(#cg-soft)">
    <circle cx="18" cy="18" r="4.1" fill="#131c23" stroke="#f8cc70" stroke-width="2.1"/>
    <circle cx="46" cy="46" r="4.1" fill="#131c23" stroke="#f8cc70" stroke-width="2.1"/>
  </g>
  <circle cx="46" cy="18" r="4.1" fill="#131c23" stroke="#adc5d5" stroke-width="2.1"/>
  <circle cx="18" cy="46" r="4.1" fill="#131c23" stroke="#adc5d5" stroke-width="2.1"/>
  <g filter="url(#cg-shadow)">
    <path d="M32 24L40 32L32 40L24 32L32 24Z" fill="#131c23" stroke="#e09b2d" stroke-width="2.1"/>
  </g>
  <rect x="29" y="29" width="6" height="6" rx="1.4" fill="#fde0a3"/>
</svg>
